# xmcd
#
# Track frame offsets:
#	182
#	16867
#	32125
#	43507
#	57910
#	70197
#	82552
#	96570
#	107437
#	119550
#	136132
#	151755
#	166445
#	183572
#	200745
#	215840
#	232450
#	245005
#	263992
#	279662
#	298192
#	311280
#
# Disc length: 4343 seconds
#
# Revision: 0
# Processed by: cddbd v1.5.2PL0 Copyright (c) Steve Scherf et al.
# Submitted via: audiograbber 1.83.01
#
DISCID=4810f516
DTITLE=Joe Tex - You're Right Joe Tex
DYEAR=1994
DGENRE=Soul
TTITLE0=Your Right, Ray Charles
TTITLE1=You Need Me, Baby
TTITLE2=The Dark End of the Street
TTITLE3=Woman Like That, Yeah
TTITLE4=Keep The One You Got
TTITLE5=The Same Things It Took To Get Me
TTITLE6=I'll Never Do You Wrong
TTITLE7=Take The Fifth Amendment
TTITLE8=Sweet, Sweet Woman
TTITLE9=We Can't Sit Down
TTITLE10=Buying A Book
TTITLE11=Sure Is Good
TTITLE12=That's The Way
TTITLE13=Anything You Wanna Know
TTITLE14=The Only Way
TTITLE15=Grandma Mary
TTITLE16=Take My Baby A Little Love
TTITLE17=I Can See Everybody's Baby (But I Can't See Mine)
TTITLE18=She Said Yeah
TTITLE19=When A Woman Stops Loving A Man
TTITLE20=Woman Stealer
TTITLE21=Funny How Time Slips Away
EXTD=
EXTT0=
EXTT1=
EXTT2=
EXTT3=
EXTT4=
EXTT5=
EXTT6=
EXTT7=
EXTT8=
EXTT9=
EXTT10=
EXTT11=
EXTT12=
EXTT13=
EXTT14=
EXTT15=
EXTT16=
EXTT17=
EXTT18=
EXTT19=
EXTT20=
EXTT21=
PLAYORDER=
